<svg width="44" height="44" viewBox="0 0 44 44" fill="none" xmlns="http://www.w3.org/2000/svg">
<rect width="44" height="44" rx="6" fill="#4F46E5"/>
<path d="M2374 4662 c-7 -4 -428 -584 -938 -1289 -947 -1311 -950 -1315 -914
-1351 9 -9 83 -12 270 -12 142 0 258 -3 258 -7 0 -5 -122 -176 -270 -381 -149
-206 -272 -383 -275 -395 -3 -12 1 -31 9 -42 14 -19 29 -20 300 -25 l285 -5
-293 -405 -292 -405 1875 -3 c1031 -1 1877 0 1879 3 3 3 -2 13 -10 22 -14 17
-425 588 -526 731 l-44 62 279 0 c301 0 316 2 316 52 -1 17 -88 147 -272 404
l-271 379 261 5 c243 5 262 6 275 24 8 11 14 27 14 36 0 8 -53 90 -118 180
-65 91 -480 669 -921 1285 -442 616 -810 1126 -819 1133 -18 13 -41 15 -58 4z
m278 -397 c134 -187 513 -716 842 -1175 329 -459 626 -873 660 -920 34 -47 65
-91 70 -97 6 -10 -49 -13 -262 -13 l-270 0 -413 577 c-228 317 -511 712 -630
877 -192 269 -218 301 -245 304 -21 2 -36 -4 -51 -20 -11 -13 -197 -268 -413
-568 -216 -300 -495 -686 -619 -857 l-225 -313 -264 0 c-232 0 -263 2 -258 15
3 8 185 264 404 568 747 1034 1358 1882 1387 1924 17 24 33 42 37 40 3 -1 116
-155 250 -342z m29 -890 c150 -209 423 -589 606 -845 l333 -465 -282 -3 c-156
-1 -287 -1 -293 2 -5 2 -152 202 -325 444 -173 243 -318 441 -321 442 -3 0
-149 -198 -324 -441 -174 -242 -323 -443 -329 -445 -6 -2 -139 -3 -294 -2
l-284 3 228 315 c125 173 400 555 611 848 212 293 389 532 393 530 5 -2 131
-174 281 -383z m-986 -1377 c8 -7 -538 -769 -558 -778 -6 -3 -139 -3 -293 0
l-282 5 235 325 c129 179 256 354 282 390 l47 65 281 0 c155 0 284 -3 288 -7z
m1761 2 l212 0 277 -386 c152 -212 275 -387 273 -389 -9 -9 -568 -9 -576 0 -9
9 -340 469 -490 680 l-64 90 29 7 c15 4 51 5 78 2 28 -2 145 -4 261 -4z" fill="white"/>
</svg>
